<svg width="188" height="41" viewBox="0 0 188 41" fill="none" xmlns="http://www.w3.org/2000/svg">
<path d="M26.983 3.33337H13.0163C6.94967 3.33337 3.33301 6.95004 3.33301 13.0167V26.9667C3.33301 33.05 6.94967 36.6667 13.0163 36.6667H26.9663C33.033 36.6667 36.6497 33.05 36.6497 26.9834V13.0167C36.6663 6.95004 33.0497 3.33337 26.983 3.33337ZM19.1663 28.75C19.1663 29.35 18.5663 29.75 18.0163 29.5167C15.9997 28.65 13.3663 27.85 11.533 27.6167L11.2163 27.5834C10.1997 27.45 9.36634 26.5 9.36634 25.4667V12.6334C9.36634 11.35 10.3997 10.4 11.6663 10.5C13.7497 10.6667 16.833 11.6667 18.7663 12.7667C19.033 12.9167 19.1663 13.2 19.1663 13.4834V28.75ZM30.633 25.45C30.633 26.4834 29.7997 27.4334 28.783 27.5667L28.433 27.6C26.6163 27.85 23.9997 28.6334 21.983 29.4834C21.433 29.7167 20.833 29.3167 20.833 28.7167V13.4667C20.833 13.1667 20.983 12.8834 21.2497 12.7334C23.183 11.65 26.1997 10.6834 28.2497 10.5H28.3163C29.5997 10.5 30.633 11.5334 30.633 12.8167V25.45Z" fill="#546FFF"/>
<path d="M54.464 33V9.16H57.504L70.88 27.624L69.44 27.848V9.16H73.184V33H70.144L56.864 14.408L58.24 14.152V33H54.464ZM82.9843 33.384C81.6829 33.384 80.5416 33.096 79.5603 32.52C78.5789 31.9227 77.8109 31.1013 77.2563 30.056C76.7229 28.9893 76.4563 27.7627 76.4563 26.376V15.688H80.0723V26.056C80.0723 26.8453 80.2323 27.5387 80.5523 28.136C80.8723 28.7333 81.3203 29.2027 81.8963 29.544C82.4723 29.864 83.1336 30.024 83.8803 30.024C84.6483 30.024 85.3203 29.8533 85.8963 29.512C86.4723 29.1707 86.9203 28.6907 87.2403 28.072C87.5816 27.4533 87.7523 26.728 87.7523 25.896V15.688H91.3363V33H87.9123V29.608L88.2963 30.056C87.8909 31.1227 87.2189 31.944 86.2803 32.52C85.3416 33.096 84.2429 33.384 82.9843 33.384ZM102.726 33.384C100.998 33.384 99.4623 32.9893 98.1183 32.2C96.7956 31.3893 95.7609 30.3013 95.0143 28.936C94.2676 27.5493 93.8943 26.0027 93.8943 24.296C93.8943 22.5467 94.2676 21 95.0143 19.656C95.7823 18.312 96.8063 17.256 98.0863 16.488C99.3663 15.6987 100.817 15.304 102.438 15.304C103.74 15.304 104.902 15.528 105.926 15.976C106.95 16.424 107.814 17.0427 108.518 17.832C109.222 18.6 109.756 19.4853 110.118 20.488C110.502 21.4907 110.694 22.5573 110.694 23.688C110.694 23.9653 110.684 24.2533 110.662 24.552C110.641 24.8507 110.598 25.128 110.534 25.384H96.7423V22.504H108.486L106.758 23.816C106.972 22.7707 106.897 21.8427 106.534 21.032C106.193 20.2 105.66 19.5493 104.934 19.08C104.23 18.5893 103.398 18.344 102.438 18.344C101.478 18.344 100.625 18.5893 99.8783 19.08C99.1316 19.5493 98.5556 20.232 98.1503 21.128C97.7449 22.0027 97.5849 23.0693 97.6703 24.328C97.5636 25.5013 97.7236 26.5253 98.1503 27.4C98.5983 28.2747 99.2169 28.9573 100.006 29.448C100.817 29.9387 101.734 30.184 102.758 30.184C103.804 30.184 104.689 29.9493 105.414 29.48C106.161 29.0107 106.748 28.4027 107.174 27.656L110.118 29.096C109.777 29.9067 109.244 30.6427 108.518 31.304C107.814 31.944 106.961 32.456 105.958 32.84C104.977 33.2027 103.9 33.384 102.726 33.384ZM121.615 40.04C120.357 40.04 119.194 39.8373 118.127 39.432C117.061 39.0267 116.143 38.4613 115.375 37.736C114.607 37.032 114.031 36.2 113.647 35.24L116.975 33.864C117.274 34.6747 117.818 35.3467 118.607 35.88C119.418 36.4133 120.41 36.68 121.583 36.68C122.501 36.68 123.322 36.4987 124.047 36.136C124.773 35.7947 125.349 35.2827 125.775 34.6C126.202 33.9387 126.415 33.1387 126.415 32.2V28.296L127.055 29.032C126.458 30.1413 125.626 30.984 124.559 31.56C123.514 32.136 122.33 32.424 121.007 32.424C119.407 32.424 117.967 32.0507 116.687 31.304C115.407 30.5573 114.394 29.5333 113.647 28.232C112.922 26.9307 112.559 25.4693 112.559 23.848C112.559 22.2053 112.922 20.744 113.647 19.464C114.394 18.184 115.397 17.1707 116.655 16.424C117.914 15.6773 119.354 15.304 120.975 15.304C122.298 15.304 123.471 15.592 124.495 16.168C125.541 16.7227 126.394 17.5333 127.055 18.6L126.575 19.496V15.688H129.999V32.2C129.999 33.6933 129.637 35.0267 128.911 36.2C128.207 37.3947 127.226 38.3333 125.967 39.016C124.709 39.6987 123.258 40.04 121.615 40.04ZM121.423 29.064C122.383 29.064 123.237 28.84 123.983 28.392C124.73 27.9227 125.317 27.304 125.743 26.536C126.191 25.7467 126.415 24.8613 126.415 23.88C126.415 22.8987 126.191 22.0133 125.743 21.224C125.295 20.4347 124.698 19.816 123.951 19.368C123.205 18.8987 122.362 18.664 121.423 18.664C120.442 18.664 119.567 18.8987 118.799 19.368C118.031 19.816 117.423 20.4347 116.975 21.224C116.549 21.992 116.335 22.8773 116.335 23.88C116.335 24.84 116.549 25.7147 116.975 26.504C117.423 27.2933 118.031 27.9227 118.799 28.392C119.567 28.84 120.442 29.064 121.423 29.064ZM138.456 33.384C137.283 33.384 136.248 33.1813 135.352 32.776C134.477 32.3493 133.795 31.7733 133.304 31.048C132.813 30.3013 132.568 29.4267 132.568 28.424C132.568 27.4853 132.771 26.6427 133.176 25.896C133.603 25.1493 134.253 24.52 135.128 24.008C136.003 23.496 137.101 23.1333 138.424 22.92L144.44 21.928V24.776L139.128 25.704C138.168 25.8747 137.464 26.184 137.016 26.632C136.568 27.0587 136.344 27.6133 136.344 28.296C136.344 28.9573 136.589 29.5013 137.08 29.928C137.592 30.3333 138.243 30.536 139.032 30.536C140.013 30.536 140.867 30.3227 141.592 29.896C142.339 29.4693 142.915 28.904 143.32 28.2C143.725 27.4747 143.928 26.6747 143.928 25.8V21.352C143.928 20.4987 143.608 19.8053 142.968 19.272C142.349 18.7173 141.517 18.44 140.472 18.44C139.512 18.44 138.669 18.696 137.944 19.208C137.24 19.6987 136.717 20.3387 136.376 21.128L133.368 19.624C133.688 18.7707 134.211 18.024 134.936 17.384C135.661 16.7227 136.504 16.2107 137.464 15.848C138.445 15.4853 139.48 15.304 140.568 15.304C141.933 15.304 143.139 15.56 144.184 16.072C145.251 16.584 146.072 17.2987 146.648 18.216C147.245 19.112 147.544 20.1573 147.544 21.352V33H144.088V29.864L144.824 29.96C144.419 30.664 143.896 31.272 143.256 31.784C142.637 32.296 141.923 32.6907 141.112 32.968C140.323 33.2453 139.437 33.384 138.456 33.384ZM157.212 33.384C155.441 33.384 153.884 32.9467 152.54 32.072C151.217 31.1973 150.289 30.024 149.756 28.552L152.54 27.24C153.009 28.2213 153.649 29 154.46 29.576C155.292 30.152 156.209 30.44 157.212 30.44C158.065 30.44 158.759 30.248 159.292 29.864C159.825 29.48 160.092 28.9573 160.092 28.296C160.092 27.8693 159.975 27.528 159.74 27.272C159.505 26.9947 159.207 26.7707 158.844 26.6C158.503 26.4293 158.151 26.3013 157.788 26.216L155.068 25.448C153.575 25.0213 152.455 24.3813 151.708 23.528C150.983 22.6533 150.62 21.64 150.62 20.488C150.62 19.4427 150.887 18.536 151.42 17.768C151.953 16.9787 152.689 16.3707 153.628 15.944C154.567 15.5173 155.623 15.304 156.796 15.304C158.375 15.304 159.783 15.6987 161.02 16.488C162.257 17.256 163.132 18.3333 163.644 19.72L160.86 21.032C160.519 20.2 159.975 19.5387 159.228 19.048C158.503 18.5573 157.681 18.312 156.764 18.312C155.975 18.312 155.345 18.504 154.876 18.888C154.407 19.2507 154.172 19.7307 154.172 20.328C154.172 20.7333 154.279 21.0747 154.492 21.352C154.705 21.608 154.983 21.8213 155.324 21.992C155.665 22.1413 156.017 22.2693 156.38 22.376L159.196 23.208C160.625 23.6133 161.724 24.2533 162.492 25.128C163.26 25.9813 163.644 27.0053 163.644 28.2C163.644 29.224 163.367 30.1307 162.812 30.92C162.279 31.688 161.532 32.296 160.572 32.744C159.612 33.1707 158.492 33.384 157.212 33.384Z" fill="#141522"/>
</svg>
